<?xml version="1.0" encoding="UTF-8" standalone="no"?>
<!-- Created with Inkscape (http://www.inkscape.org/) -->

<svg
   xmlns:dc="http://purl.org/dc/elements/1.1/"
   xmlns:cc="http://creativecommons.org/ns#"
   xmlns:rdf="http://www.w3.org/1999/02/22-rdf-syntax-ns#"
   xmlns:svg="http://www.w3.org/2000/svg"
   xmlns="http://www.w3.org/2000/svg"
   xmlns:sodipodi="http://sodipodi.sourceforge.net/DTD/sodipodi-0.dtd"
   xmlns:inkscape="http://www.inkscape.org/namespaces/inkscape"
   width="780"
   height="780"
   id="svg3273"
   version="1.1"
   inkscape:version="0.48.5 r10040"
   sodipodi:docname="Nouveau document 10">
  <defs
     id="defs3275" />
  <sodipodi:namedview
     id="base"
     pagecolor="#ffffff"
     bordercolor="#666666"
     borderopacity="1.0"
     inkscape:pageopacity="0.0"
     inkscape:pageshadow="2"
     inkscape:zoom="0.35"
     inkscape:cx="390"
     inkscape:cy="390"
     inkscape:document-units="px"
     inkscape:current-layer="layer1"
     showgrid="false"
     fit-margin-top="10"
     fit-margin-left="10"
     fit-margin-right="10"
     fit-margin-bottom="10"
     inkscape:window-width="582"
     inkscape:window-height="421"
     inkscape:window-x="-2"
     inkscape:window-y="35"
     inkscape:window-maximized="0" />
  <metadata
     id="metadata3278">
    <rdf:RDF>
      <cc:Work
         rdf:about="">
        <dc:format>image/svg+xml</dc:format>
        <dc:type
           rdf:resource="http://purl.org/dc/dcmitype/StillImage" />
        <dc:title></dc:title>
      </cc:Work>
    </rdf:RDF>
  </metadata>
  <g
     inkscape:label="Calque 1"
     inkscape:groupmode="layer"
     id="layer1"
     transform="translate(15,-142.36218)">
    <g
       id="g3053"
       transform="translate(-61,96.362183)">
      <g
         id="g3006"
         transform="matrix(1,0,0,-1,0,800)">
        <path
           id="path3008"
           d="M 56,364 C 56,574 226,744 436,744 646,744 816,574 816,364 816,154 646,-16 436,-16 226,-16 56,154 56,364 z m 120,0 C 176,220 292,104 436,104 580,104 696,220 696,364 696,508 580,624 436,624 292,624 176,508 176,364 z"
           style="fill:currentColor"
           inkscape:connector-curvature="0" />
      </g>
      <path
         id="rect3078"
         d="M 325.27,325.27 H 546.73 V 546.73 H 325.27 z"
         style="color:#000000;fill:#000000;stroke:#000000;stroke-width:3.54329991;stroke-linecap:round;stroke-linejoin:round"
         inkscape:connector-curvature="0" />
    </g>
  </g>
</svg>
